<?xml version="1.0" encoding="utf-8"?>
<!-- Generator: Adobe Illustrator 25.2.3, SVG Export Plug-In . SVG Version: 6.00 Build 0)  -->
<svg version="1.1" id="Layer_1" xmlns="http://www.w3.org/2000/svg" xmlns:xlink="http://www.w3.org/1999/xlink" x="0px" y="0px"
	 viewBox="0 0 457 248" style="enable-background:new 0 0 457 248;" xml:space="preserve">
<style type="text/css">
	.st0{clip-path:url(#SVGID_2_);}
	.st1{fill:#F2F2F2;}
	.st2{fill:#3C4551;}
	.st3{fill:#06B6D4;}
	.st4{fill:none;stroke:#3F3D56;stroke-miterlimit:10;}
</style>
<g>
	<defs>
		<rect id="SVGID_1_" width="457" height="248"/>
	</defs>
	<clipPath id="SVGID_2_">
		<use xlink:href="#SVGID_1_"  style="overflow:visible;"/>
	</clipPath>
	<g class="st0">
		<path class="st1" d="M230,248c123.9,0,224.4-6.6,224.4-14.8S353.9,218.4,230,218.4C106,218.4,5.6,225,5.6,233.2S106,248,230,248z"
			/>
		<path class="st2" d="M221.4,70.9c-36.6,0-62.8,23.4-62.8,78c0,61.9,26.2,78.3,62.8,78.3s64.4-17.9,64.4-78.3
			C285.7,84.4,257.9,70.9,221.4,70.9z M221.6,206.6c-25.3,0-38.5-14.8-38.5-57.7c0-37.8,13.8-57.8,39.1-57.8
			c25.3,0,39.1,13.1,39.1,57.8C261.2,190.7,246.9,206.6,221.6,206.6z"/>
		<path class="st3" d="M136.7,184h-15.1v-44.4c0-2.4-0.9-4.6-2.6-6.3c-1.7-1.7-3.9-2.6-6.3-2.6h-3.5c-1.2,0-2.3,0.2-3.4,0.7
			c-1.1,0.4-2.1,1.1-2.9,1.9c-0.8,0.8-1.5,1.8-1.9,2.9c-0.4,1.1-0.7,2.2-0.7,3.4V184H57.6c-0.9,0-1.7-0.2-2.5-0.7
			c-0.8-0.4-1.4-1.1-1.9-1.8c-0.5-0.7-0.7-1.6-0.7-2.5s0.2-1.7,0.6-2.5l45.1-85.2c0.6-1.1,0.9-2.2,1-3.4c0.1-1.2,0-2.4-0.4-3.5
			c-0.4-1.1-1-2.2-1.8-3.1c-0.8-0.9-1.8-1.6-2.9-2.1l-2.7-1.3c-2.1-1-4.4-1.1-6.6-0.4c-2.2,0.7-4,2.2-5.1,4.3l-55,102.7
			c-0.9,1.8-1.4,3.7-1.4,5.7c0,1.6,0.3,3.2,0.9,4.6c0.6,1.5,1.5,2.8,2.6,3.9c1.1,1.1,2.5,2,3.9,2.6c1.5,0.6,3,0.9,4.6,0.9h64.8v28.1
			c0,1.4,0.3,2.8,0.8,4.1c0.5,1.3,1.3,2.5,2.3,3.5c1,1,2.2,1.8,3.5,2.3c1.3,0.5,2.7,0.8,4.1,0.8l0,0c1.4,0,2.8-0.3,4.1-0.8
			c1.3-0.5,2.5-1.3,3.5-2.3c1-1,1.8-2.2,2.3-3.5c0.5-1.3,0.8-2.7,0.8-4.1v-28.1h15.1c2.4,0,4.7-1,6.4-2.7c1.7-1.7,2.7-4,2.7-6.4
			c0-2.4-1-4.7-2.7-6.4C141.4,185,139.1,184,136.7,184z"/>
		<path class="st3" d="M416.6,184h-15.1v-44.4c0-2.4-0.9-4.6-2.6-6.3c-1.7-1.7-3.9-2.6-6.3-2.6H389c-1.2,0-2.3,0.2-3.4,0.7
			c-1.1,0.4-2.1,1.1-2.9,1.9c-0.8,0.8-1.5,1.8-1.9,2.9c-0.4,1.1-0.7,2.2-0.7,3.4V184h-42.6c-0.9,0-1.7-0.2-2.5-0.7
			c-0.8-0.4-1.4-1.1-1.9-1.8c-0.5-0.7-0.7-1.6-0.7-2.5c0-0.9,0.2-1.7,0.6-2.5l45.1-85.2c0.6-1.1,0.9-2.2,1-3.4
			c0.1-1.2,0-2.4-0.4-3.5c-0.4-1.1-1-2.2-1.8-3.1c-0.8-0.9-1.8-1.6-2.9-2.1l-2.7-1.3c-2.1-1-4.4-1.1-6.6-0.4c-2.2,0.7-4,2.2-5.1,4.3
			l-55,102.7c-0.9,1.8-1.4,3.7-1.4,5.7c0,3.2,1.3,6.3,3.5,8.5c2.3,2.3,5.3,3.5,8.5,3.5h64.8v28.1c0,2.8,1.1,5.5,3.1,7.5
			s4.7,3.1,7.6,3.1c2.8,0,5.6-1.1,7.6-3.1s3.1-4.7,3.1-7.5v-28.1h15.1c2.4,0,4.7-1,6.5-2.7c1.7-1.7,2.7-4,2.7-6.4
			c0-2.4-1-4.7-2.7-6.4C421.3,185,419,184,416.6,184z"/>
		<path class="st4" d="M140.8,178.8h-15.1v-44.4c0-1.2-0.2-2.3-0.7-3.4c-0.4-1.1-1.1-2.1-1.9-2.9c-0.8-0.8-1.8-1.5-2.9-1.9
			c-1.1-0.4-2.2-0.7-3.4-0.7h-3.5c-2.4,0-4.6,0.9-6.3,2.6c-1.7,1.7-2.6,3.9-2.6,6.3v44.4H61.7c-0.9,0-1.7-0.2-2.5-0.7
			c-0.8-0.4-1.4-1-1.9-1.8s-0.7-1.6-0.7-2.5c0-0.9,0.2-1.7,0.6-2.5l45.1-85.2c0.6-1.1,0.9-2.2,1-3.4c0.1-1.2,0-2.4-0.4-3.5
			c-0.4-1.1-1-2.2-1.8-3.1c-0.8-0.9-1.8-1.6-2.9-2.1l-2.7-1.3c-2.1-1-4.4-1.1-6.6-0.4c-2.2,0.7-4,2.2-5.1,4.3l-55,102.7
			c-0.9,1.8-1.4,3.7-1.4,5.7l0,0c0,3.2,1.3,6.3,3.5,8.5c2.3,2.3,5.3,3.5,8.5,3.5h64.8v28.1c0,1.4,0.3,2.8,0.8,4.1
			c0.5,1.3,1.3,2.5,2.3,3.5c1,1,2.2,1.8,3.5,2.3c1.3,0.5,2.7,0.8,4.1,0.8l0,0c2.8,0,5.6-1.1,7.6-3.1c2-2,3.1-4.7,3.1-7.5V197h15.1
			c1.2,0,2.4-0.2,3.5-0.7s2.1-1.1,3-2c0.8-0.8,1.5-1.8,2-3c0.5-1.1,0.7-2.3,0.7-3.5l0,0c0-1.2-0.2-2.4-0.7-3.5c-0.5-1.1-1.1-2.1-2-3
			c-0.8-0.8-1.9-1.5-3-2S142,178.8,140.8,178.8L140.8,178.8z"/>
		<path class="st4" d="M424.4,178.8h-15.1v-44.4c0-2.4-0.9-4.6-2.6-6.3c-1.7-1.7-3.9-2.6-6.3-2.6h-3.5c-1.2,0-2.3,0.2-3.4,0.7
			c-1.1,0.4-2.1,1.1-2.9,1.9c-0.8,0.8-1.5,1.8-1.9,2.9c-0.4,1.1-0.7,2.2-0.7,3.4v44.4h-42.6c-0.9,0-1.7-0.2-2.5-0.7
			c-0.8-0.4-1.4-1-1.9-1.8c-0.5-0.8-0.7-1.6-0.7-2.5c0-0.9,0.2-1.7,0.6-2.5l45.1-85.2c0.6-1.1,0.9-2.2,1-3.4c0.1-1.2,0-2.4-0.4-3.5
			c-0.4-1.1-1-2.2-1.8-3.1c-0.8-0.9-1.8-1.6-2.9-2.1l-2.7-1.3c-2.1-1-4.4-1.1-6.6-0.4c-2.2,0.7-4,2.2-5.1,4.3l-55,102.7
			c-0.9,1.8-1.4,3.7-1.4,5.7c0,3.2,1.3,6.3,3.5,8.5c2.3,2.3,5.3,3.5,8.5,3.5h64.8v28.1c0,2.8,1.1,5.5,3.1,7.5s4.7,3.1,7.6,3.1l0,0
			c2.8,0,5.6-1.1,7.6-3.1s3.1-4.7,3.1-7.5V197h15.1c1.2,0,2.4-0.2,3.5-0.7c1.1-0.5,2.1-1.1,3-2c0.8-0.8,1.5-1.8,2-3
			c0.5-1.1,0.7-2.3,0.7-3.5l0,0c0-2.4-1-4.7-2.7-6.4C429.1,179.8,426.8,178.8,424.4,178.8L424.4,178.8z"/>
		<path class="st4" d="M229.7,66.2c-36.6,0-62.8,23.4-62.8,78c0,61.9,26.2,78.3,62.8,78.3s64.4-17.9,64.4-78.3
			C294.1,79.7,266.3,66.2,229.7,66.2z M229.9,202c-25.3,0-38.5-14.8-38.5-57.7c0-37.8,13.8-57.8,39.1-57.8
			c25.3,0,39.1,13.1,39.1,57.8C269.6,186.1,255.3,202,229.9,202L229.9,202z"/>
	</g>
</g>
</svg>
